<?xml version="1.0" encoding="utf-8"?>
<!-- Generator: Adobe Illustrator 23.0.5, SVG Export Plug-In . SVG Version: 6.00 Build 0)  -->
<svg version="1.1" xmlns="http://www.w3.org/2000/svg" xmlns:xlink="http://www.w3.org/1999/xlink" x="0px" y="0px"
	 viewBox="0 0 1920 1080" style="enable-background:new 0 0 1920 1080;" xml:space="preserve">
<style type="text/css">
	.st0{display:none;}
	.st1{display:inline;fill:url(#SVGID_1_);stroke:#000000;stroke-miterlimit:10;}
	.st2{display:inline;fill:#FF0000;stroke:#000000;stroke-miterlimit:10;}
	.st3{fill:#FF0000;}
	.st4{display:none;fill:#FF0000;stroke:#000000;stroke-width:5;stroke-miterlimit:10;}
	.st5{display:none;fill:#0000FF;stroke:#000000;stroke-width:5;stroke-miterlimit:10;}
	.st6{fill:none;}
	.st7{display:inline;fill:#0000FF;}
	.st8{font-family:'PistonPressure';}
	.st9{font-size:250px;}
	.st10{fill:#0000FF;}
</style>
<g id="Capa_1" class="st0">
	<linearGradient id="SVGID_1_" gradientUnits="userSpaceOnUse" x1="901.9387" y1="457.655" x2="902.3887" y2="457.655">
		<stop  offset="0" style="stop-color:#DB2300"/>
		<stop  offset="1" style="stop-color:#F8FF51"/>
	</linearGradient>
	<polygon class="st1" points="902.39,457.43 901.94,457.88 901.94,457.43 	"/>
	<polygon class="st2" points="1894.62,854.19 1894.62,857.02 1861.27,890.37 1808.19,943.45 1784.1,967.55 1073.4,967.55 
		1186.76,854.19 1348.64,854.19 1350.17,852.66 1413.99,788.84 1422.79,780.05 1422.79,259.59 1381.65,218.45 363.93,218.45 
		319.52,262.87 289.94,292.45 289.94,415.28 370.38,495.72 688.77,495.72 702.73,509.68 723.47,530.42 723.47,894.33 650.25,967.55 
		177.34,967.55 290.7,854.19 528.92,854.19 603.98,779.13 603.98,688.01 583.51,667.54 531.18,615.21 254.18,615.21 176.57,537.6 
		176.57,215.59 207.15,185.02 292.61,99.56 293.2,98.96 1894.5,98.96 1775.01,218.45 1589.23,218.45 1542.28,265.4 1542.28,787.56 
		1607.38,852.66 1608.91,854.19 	"/>
	<path class="st2" d="M900.51,262.87l-112.7,112.7v475.66l17.95,17.95l47.45,47.46l48.73,48.73V772.69l151.3,151.3l81.88-81.88
		L983.29,690.28h202.43l74.69-74.69V262.87H900.51z M1140.92,495.72l-75.07,75.07H901.94V457.43h0.45l75.07-75.07h163.46V495.72z"/>
</g>
<g id="Capa_2">
	<path class="st3" d="M1726.52,814.51c0,12.89-10.42,23.34-23.27,23.34h-46.53c0-12.89,10.42-23.34,23.27-23.34H1726.52z"/>
	<path class="st4" d="M1714.01,841.97c-0.25-0.13-0.5-0.25-0.75-0.38C1713.51,841.72,1713.76,841.84,1714.01,841.97z"/>
	<path class="st4" d="M1717.31,844.07c-0.19-0.14-0.38-0.28-0.57-0.42C1716.93,843.79,1717.12,843.93,1717.31,844.07z"/>
	<path class="st4" d="M1719.19,845.66c-0.17-0.16-0.34-0.32-0.52-0.47C1718.84,845.34,1719.02,845.5,1719.19,845.66z"/>
	<path class="st4" d="M1722.55,849.63c-0.12-0.18-0.24-0.35-0.36-0.52C1722.31,849.28,1722.43,849.45,1722.55,849.63z"/>
	<path class="st4" d="M1724.17,852.44c-0.1-0.21-0.21-0.42-0.32-0.63C1723.96,852.02,1724.07,852.23,1724.17,852.44z"/>
	<path class="st5" d="M1715.32,881.8c-0.19,0.16-0.38,0.33-0.57,0.48C1714.94,882.13,1715.13,881.97,1715.32,881.8z"/>
	<path class="st3" d="M1726.52,864.16c0,0.13,0,0.26,0,0.39v0.03c0,0.08,0,0.17-0.01,0.25c0,0.01,0,0.03,0,0.04
		c0,0.05,0,0.11,0,0.16c0,0.01,0,0.02,0,0.03c-0.01,0.2-0.02,0.4-0.03,0.6c0,0.02,0,0.03,0,0.05c0,0.05-0.01,0.1-0.01,0.15
		c0,0.07-0.01,0.15-0.02,0.22c0,0,0,0.01,0,0.01c-0.01,0.08-0.01,0.16-0.02,0.24c0,0.01,0,0.03,0,0.04
		c-0.01,0.09-0.02,0.17-0.03,0.26c-0.01,0.11-0.02,0.21-0.03,0.31c0,0.02,0,0.04-0.01,0.06c-0.01,0.06-0.02,0.13-0.02,0.19
		c0,0.01,0,0.01,0,0.02c-0.01,0.07-0.02,0.14-0.03,0.21c0,0,0,0,0,0c-0.01,0.11-0.03,0.21-0.05,0.32c-0.01,0.1-0.03,0.19-0.05,0.29
		c0,0.01,0,0.03-0.01,0.04c-0.01,0.04-0.01,0.08-0.02,0.12c0,0.01,0,0.02,0,0.03c-0.01,0.08-0.03,0.16-0.04,0.24
		c0,0.02-0.01,0.05-0.01,0.07c-0.02,0.11-0.04,0.23-0.07,0.34c0,0.02-0.01,0.04-0.01,0.06c-0.02,0.1-0.04,0.21-0.07,0.31
		c0,0.01,0,0.01,0,0.02c0,0.01,0,0.02-0.01,0.04c-0.02,0.1-0.04,0.2-0.07,0.29l-0.02,0.07c-0.03,0.11-0.05,0.22-0.08,0.33
		c0,0.02-0.01,0.04-0.01,0.05c-0.03,0.1-0.05,0.21-0.08,0.31c-0.01,0.03-0.02,0.06-0.03,0.09c-0.02,0.08-0.05,0.16-0.07,0.25
		c-0.05,0.17-0.1,0.35-0.16,0.52c-0.03,0.08-0.05,0.16-0.07,0.23c-0.01,0.04-0.02,0.07-0.04,0.11c-0.03,0.1-0.07,0.21-0.1,0.31
		c0,0,0,0,0,0c-0.04,0.12-0.08,0.24-0.13,0.36c-0.03,0.09-0.07,0.19-0.11,0.28c-0.02,0.06-0.05,0.13-0.07,0.19
		c-0.01,0.02-0.02,0.04-0.03,0.07c-0.03,0.07-0.06,0.15-0.09,0.22c-0.01,0.02-0.02,0.04-0.02,0.06c-0.03,0.08-0.07,0.17-0.1,0.25
		c-0.05,0.11-0.09,0.22-0.14,0.33c-0.06,0.14-0.12,0.27-0.18,0.41c-0.05,0.1-0.09,0.2-0.14,0.31c-0.05,0.11-0.11,0.22-0.17,0.34
		c0,0,0,0,0,0.01c-0.05,0.1-0.1,0.19-0.15,0.29c-0.03,0.07-0.07,0.14-0.11,0.2c-0.04,0.07-0.07,0.14-0.11,0.2
		c-0.05,0.09-0.1,0.18-0.15,0.27c-0.01,0.02-0.03,0.05-0.04,0.07c-0.06,0.1-0.11,0.2-0.17,0.29c-0.07,0.12-0.14,0.24-0.22,0.36
		c-0.05,0.08-0.1,0.16-0.15,0.24c-0.06,0.09-0.11,0.18-0.17,0.27c-0.01,0.02-0.02,0.04-0.03,0.05c-0.06,0.1-0.13,0.2-0.2,0.3
		c-0.03,0.05-0.07,0.11-0.11,0.16c-0.04,0.06-0.09,0.13-0.13,0.19c-0.08,0.11-0.16,0.23-0.24,0.34c-0.08,0.11-0.16,0.22-0.25,0.33
		c-0.05,0.07-0.11,0.14-0.16,0.21c-0.02,0.02-0.04,0.05-0.05,0.07c-0.07,0.09-0.14,0.18-0.21,0.27c0,0,0,0.01-0.01,0.01
		c-0.08,0.09-0.15,0.19-0.23,0.28c-0.08,0.1-0.16,0.19-0.24,0.29c-0.08,0.1-0.16,0.19-0.25,0.28c0,0,0,0,0,0
		c-0.08,0.09-0.16,0.18-0.25,0.28c-0.08,0.09-0.17,0.18-0.25,0.27c0,0,0,0.01-0.01,0.01c0,0-0.01,0.01-0.01,0.01
		c-0.17,0.18-0.33,0.35-0.51,0.52c0,0,0,0,0,0c-0.09,0.09-0.18,0.17-0.27,0.26c-0.09,0.08-0.18,0.17-0.27,0.25c0,0,0,0,0,0
		c-0.09,0.08-0.18,0.17-0.28,0.25c0,0,0,0,0,0c-0.09,0.08-0.18,0.16-0.27,0.25c0,0,0,0-0.01,0c-0.19,0.16-0.38,0.32-0.57,0.48
		c-0.1,0.08-0.19,0.16-0.29,0.24c-0.11,0.09-0.22,0.18-0.34,0.26c-0.18,0.14-0.36,0.28-0.55,0.41c0,0-0.01,0.01-0.01,0.01
		c-0.1,0.07-0.2,0.14-0.31,0.22c-0.1,0.07-0.21,0.14-0.31,0.21c-0.1,0.07-0.21,0.14-0.31,0.21c-0.1,0.07-0.21,0.14-0.32,0.2
		c-0.09,0.06-0.19,0.12-0.28,0.17c-0.03,0.02-0.06,0.04-0.09,0.06c-0.09,0.05-0.18,0.11-0.27,0.16c-0.11,0.06-0.21,0.12-0.32,0.18
		c-0.09,0.05-0.19,0.1-0.28,0.15c-0.03,0.02-0.07,0.04-0.1,0.05c-0.09,0.05-0.18,0.1-0.27,0.14c-0.1,0.05-0.21,0.11-0.32,0.16
		c0,0-0.01,0.01-0.02,0.01c-0.11,0.06-0.22,0.11-0.33,0.16c-0.11,0.05-0.22,0.11-0.34,0.16c-0.11,0.05-0.22,0.1-0.33,0.15
		c0,0,0,0-0.01,0c-0.11,0.05-0.23,0.1-0.34,0.15c-0.12,0.05-0.23,0.1-0.35,0.14c-0.12,0.05-0.23,0.09-0.35,0.14c0,0,0,0,0,0
		c-0.09,0.03-0.18,0.07-0.28,0.1c-0.02,0.01-0.03,0.01-0.05,0.02c-0.06,0.02-0.12,0.04-0.19,0.07c-0.03,0.01-0.05,0.02-0.08,0.03
		c-0.01,0-0.02,0.01-0.03,0.01c-0.05,0.02-0.11,0.04-0.16,0.06c-0.19,0.07-0.38,0.13-0.57,0.19c-0.07,0.02-0.14,0.04-0.21,0.06
		c0,0-0.01,0-0.01,0c-0.08,0.02-0.16,0.05-0.24,0.07c-0.09,0.03-0.18,0.05-0.27,0.07c-0.04,0.01-0.08,0.02-0.11,0.03
		c-0.08,0.02-0.17,0.04-0.25,0.07c-0.07,0.02-0.14,0.04-0.21,0.05c-0.01,0-0.03,0.01-0.04,0.01c-0.03,0.01-0.05,0.01-0.08,0.02
		c-0.08,0.02-0.16,0.04-0.24,0.06c-0.09,0.02-0.19,0.04-0.28,0.06c-0.09,0.02-0.19,0.04-0.28,0.06c-0.06,0.01-0.12,0.02-0.18,0.04
		c-0.01,0-0.02,0-0.02,0c-0.05,0.01-0.11,0.02-0.16,0.03c0,0-0.01,0-0.01,0c-0.05,0.01-0.1,0.02-0.15,0.03
		c-0.03,0.01-0.07,0.01-0.1,0.02c-0.02,0-0.03,0.01-0.05,0.01c-0.06,0.01-0.12,0.02-0.18,0.03c-0.2,0.03-0.4,0.06-0.61,0.09
		c-0.07,0.01-0.13,0.02-0.2,0.03c-0.09,0.01-0.19,0.02-0.28,0.04c-0.1,0.01-0.21,0.02-0.31,0.04c-0.01,0-0.02,0-0.02,0
		c-0.06,0.01-0.12,0.01-0.18,0.02c-0.06,0.01-0.12,0.01-0.18,0.02h0c-0.07,0.01-0.13,0.01-0.2,0.02c-0.04,0-0.08,0.01-0.13,0.01
		h-0.01c-0.07,0.01-0.14,0.01-0.21,0.01c0,0-0.01,0-0.01,0c-0.22,0.01-0.44,0.03-0.67,0.03c-0.01,0-0.03,0-0.04,0
		c-0.02,0-0.04,0-0.07,0c-0.07,0-0.14,0-0.21,0.01c-0.01,0-0.03,0-0.04,0c-0.04,0-0.08,0-0.12,0c-0.01,0-0.02,0-0.03,0
		c-0.11,0-0.22,0-0.32,0h-46.53c0-12.89,10.42-23.34,23.27-23.34H1726.52z"/>
	<path class="st3" d="M1726.52,862.68h-46.53c-12.85,0-23.27-10.45-23.27-23.34h46.53c0.1,0,0.2,0,0.31,0c0.09,0,0.18,0,0.27,0.01
		c0.03,0,0.06,0,0.09,0c0.15,0,0.3,0.01,0.44,0.02c0.01,0,0.02,0,0.03,0c0.05,0,0.1,0,0.15,0.01c0.37,0.02,0.73,0.05,1.09,0.08
		c0.05,0,0.1,0.01,0.16,0.02c0.09,0.01,0.18,0.02,0.26,0.03c0.15,0.02,0.3,0.04,0.45,0.06c0.09,0.01,0.17,0.02,0.26,0.04
		c0.01,0,0.02,0,0.03,0c0.09,0.01,0.18,0.03,0.27,0.04c0.18,0.03,0.37,0.06,0.55,0.1c0.04,0.01,0.07,0.01,0.11,0.02
		c0.07,0.01,0.14,0.03,0.21,0.04c0.29,0.06,0.58,0.13,0.87,0.2c0.08,0.02,0.15,0.04,0.23,0.06c0.08,0.02,0.17,0.04,0.25,0.07
		c0.07,0.02,0.14,0.04,0.21,0.06c0.07,0.02,0.14,0.04,0.21,0.06c0.14,0.04,0.28,0.08,0.42,0.13c0.13,0.04,0.26,0.08,0.39,0.13
		c0.11,0.04,0.22,0.07,0.33,0.11c0.05,0.01,0.09,0.03,0.14,0.05c0.11,0.04,0.22,0.08,0.33,0.12c0.12,0.04,0.24,0.09,0.36,0.14
		c0.03,0.01,0.07,0.03,0.1,0.04c0.11,0.04,0.21,0.08,0.32,0.13c0,0,0.01,0,0.01,0c0.13,0.05,0.25,0.11,0.38,0.16
		c0.13,0.06,0.26,0.11,0.38,0.17c0.13,0.06,0.25,0.12,0.38,0.18c0.25,0.12,0.5,0.25,0.75,0.38c0.25,0.13,0.49,0.26,0.73,0.4
		c0.24,0.14,0.47,0.28,0.7,0.42c0.01,0.01,0.02,0.01,0.03,0.02c0.11,0.07,0.23,0.14,0.34,0.21c0.12,0.07,0.23,0.15,0.35,0.23
		c0.1,0.07,0.19,0.13,0.29,0.2c0.09,0.06,0.18,0.13,0.27,0.19c0.01,0,0.01,0.01,0.02,0.01c0.19,0.14,0.38,0.28,0.57,0.42
		c0.08,0.06,0.15,0.12,0.23,0.18c0.03,0.02,0.05,0.04,0.08,0.06c0.17,0.14,0.34,0.27,0.51,0.42c0.09,0.08,0.18,0.15,0.27,0.23
		c0.09,0.08,0.18,0.15,0.26,0.23c0.17,0.16,0.35,0.31,0.52,0.47c0.09,0.08,0.17,0.16,0.25,0.24c0.08,0.08,0.17,0.16,0.25,0.25
		c0.07,0.07,0.14,0.14,0.22,0.22c0.01,0.01,0.03,0.03,0.04,0.04c0.08,0.08,0.16,0.16,0.23,0.25c0.08,0.08,0.16,0.17,0.24,0.26
		c0.08,0.09,0.16,0.17,0.23,0.26c0.08,0.09,0.16,0.18,0.23,0.27c0.08,0.09,0.15,0.18,0.23,0.27c0.07,0.09,0.15,0.18,0.22,0.27
		c0.07,0.09,0.15,0.18,0.22,0.28c0,0,0.01,0.01,0.01,0.01c0.07,0.09,0.14,0.18,0.21,0.27c0.07,0.09,0.14,0.19,0.21,0.28
		c0.07,0.09,0.14,0.19,0.21,0.28c0.12,0.17,0.24,0.35,0.36,0.52c0.02,0.03,0.04,0.05,0.05,0.08c0.06,0.09,0.12,0.18,0.18,0.27
		c0.06,0.1,0.13,0.2,0.19,0.3c0.06,0.1,0.12,0.2,0.19,0.3c0.06,0.1,0.12,0.2,0.18,0.3c0.06,0.1,0.11,0.2,0.17,0.3
		c0,0,0.01,0.01,0.01,0.02c0.06,0.1,0.11,0.2,0.17,0.3c0.06,0.1,0.11,0.21,0.17,0.31c0.11,0.21,0.22,0.42,0.32,0.63
		c0.04,0.09,0.09,0.18,0.13,0.27c0.06,0.13,0.12,0.25,0.17,0.38c0.05,0.11,0.1,0.22,0.14,0.33c0.05,0.11,0.09,0.22,0.14,0.33
		c0.03,0.08,0.07,0.16,0.1,0.24c0.06,0.16,0.13,0.32,0.19,0.48c0.03,0.08,0.06,0.17,0.09,0.26c0.03,0.08,0.06,0.16,0.09,0.25
		c0.02,0.07,0.05,0.13,0.07,0.2c0.03,0.09,0.06,0.17,0.09,0.26c0.04,0.11,0.07,0.23,0.11,0.34c0.04,0.12,0.07,0.23,0.1,0.35
		c0.03,0.12,0.07,0.23,0.1,0.35c0.03,0.11,0.06,0.22,0.09,0.33c0.06,0.25,0.13,0.5,0.18,0.75c0.02,0.09,0.04,0.17,0.06,0.26
		c0.01,0.05,0.02,0.1,0.03,0.15c0.05,0.23,0.09,0.47,0.13,0.7c0.01,0.08,0.03,0.16,0.04,0.23c0.01,0.06,0.02,0.13,0.03,0.19
		c0.01,0.03,0.01,0.06,0.01,0.09c0.01,0.07,0.02,0.15,0.03,0.22c0.02,0.1,0.03,0.21,0.04,0.31c0.01,0.12,0.03,0.23,0.04,0.35
		c0.01,0.1,0.02,0.2,0.03,0.3c0.01,0.05,0.01,0.1,0.01,0.14c0.01,0.09,0.02,0.18,0.02,0.27c0,0.01,0,0.03,0,0.04
		c0.01,0.07,0.01,0.14,0.02,0.22c0,0.05,0.01,0.1,0.01,0.15c0,0.04,0,0.07,0.01,0.11c0,0.08,0.01,0.17,0.01,0.25
		c0,0.08,0.01,0.17,0.01,0.25c0,0.08,0.01,0.16,0.01,0.25c0,0.04,0,0.08,0,0.11c0,0.06,0,0.12,0,0.19
		C1726.52,862.45,1726.52,862.56,1726.52,862.68z"/>
	<path class="st4" d="M1714.01,841.97c-0.25-0.13-0.5-0.25-0.75-0.38C1713.51,841.72,1713.76,841.84,1714.01,841.97z"/>
	<path class="st4" d="M1717.31,844.07c-0.19-0.14-0.38-0.28-0.57-0.42C1716.93,843.79,1717.12,843.93,1717.31,844.07z"/>
	<path class="st4" d="M1719.19,845.66c-0.17-0.16-0.34-0.32-0.52-0.47C1718.84,845.34,1719.02,845.5,1719.19,845.66z"/>
	<path class="st4" d="M1724.17,852.44c-0.1-0.21-0.21-0.42-0.32-0.63C1723.96,852.02,1724.07,852.23,1724.17,852.44z"/>
	<path class="st3" d="M1752.96,864.16c0,12.89-10.42,23.34-23.27,23.34v-23.34H1752.96z"/>
	<path class="st3" d="M1799.53,837.85h-69.84c0-12.89,10.42-23.34,23.27-23.34h23.38c0.75,0,1.49,0.04,2.21,0.11
		c0.58,0.05,1.16,0.13,1.73,0.23C1791.22,816.73,1799.53,826.31,1799.53,837.85z"/>
	<path class="st3" d="M1799.6,839.33v0.06c0,0.1,0,0.2,0,0.3c0,0.1,0,0.2-0.01,0.3c0,0.08,0,0.15-0.01,0.23c0,0.03,0,0.06,0,0.09
		c0,0.09-0.01,0.18-0.01,0.28c0,0.07-0.01,0.14-0.01,0.21c0,0.07-0.01,0.14-0.01,0.21c-0.01,0.09-0.01,0.19-0.02,0.28
		c-0.01,0.09-0.01,0.18-0.02,0.27c-0.01,0.07-0.01,0.14-0.02,0.21c-0.01,0.1-0.02,0.2-0.03,0.3c0,0.04-0.01,0.09-0.01,0.13
		c-0.01,0.06-0.01,0.12-0.02,0.18c-0.02,0.14-0.04,0.28-0.06,0.43c-0.01,0.1-0.03,0.2-0.05,0.3c-0.01,0.07-0.02,0.13-0.03,0.2
		c-0.02,0.11-0.04,0.21-0.06,0.32c-0.01,0.06-0.02,0.11-0.03,0.17c-0.01,0.05-0.02,0.1-0.03,0.15c-0.02,0.09-0.04,0.18-0.05,0.27
		c-0.01,0.05-0.02,0.1-0.03,0.15c-0.01,0.04-0.02,0.08-0.03,0.12c-0.02,0.1-0.04,0.19-0.06,0.29c-0.02,0.07-0.04,0.15-0.05,0.23
		c0,0.01,0,0.02-0.01,0.02c-0.03,0.11-0.06,0.22-0.08,0.33c-0.03,0.11-0.06,0.22-0.09,0.33c-0.01,0.05-0.03,0.1-0.04,0.15
		c-0.01,0.03-0.02,0.06-0.02,0.08c-0.02,0.06-0.03,0.12-0.05,0.18c-0.02,0.07-0.04,0.14-0.06,0.21c-0.09,0.29-0.18,0.57-0.28,0.85
		c-0.03,0.07-0.05,0.14-0.08,0.22c0,0,0,0,0,0.01c-0.02,0.05-0.04,0.11-0.06,0.16c-0.09,0.26-0.19,0.51-0.3,0.77
		c-0.04,0.09-0.08,0.19-0.12,0.28c-0.08,0.19-0.16,0.37-0.25,0.56c-0.13,0.29-0.27,0.58-0.42,0.86c-0.05,0.1-0.1,0.2-0.16,0.3
		c-0.1,0.2-0.21,0.4-0.32,0.59c-0.28,0.49-0.57,0.97-0.88,1.44c-0.07,0.11-0.14,0.21-0.21,0.31c-0.04,0.06-0.08,0.12-0.12,0.18
		c-0.03,0.04-0.06,0.08-0.09,0.12c-0.09,0.13-0.18,0.25-0.28,0.38c-0.04,0.06-0.08,0.11-0.13,0.17c-0.17,0.23-0.35,0.46-0.53,0.68
		c-0.1,0.12-0.2,0.24-0.3,0.36c-0.01,0.01-0.02,0.02-0.03,0.03c-0.05,0.06-0.1,0.12-0.16,0.18c-0.04,0.05-0.08,0.09-0.12,0.14
		c-0.05,0.06-0.1,0.11-0.15,0.17c-0.05,0.06-0.1,0.11-0.15,0.17c-0.05,0.06-0.1,0.11-0.15,0.17c-0.05,0.06-0.1,0.11-0.16,0.16
		c-0.04,0.04-0.07,0.08-0.11,0.11c-0.04,0.04-0.07,0.07-0.11,0.11c-0.07,0.07-0.15,0.15-0.22,0.22c-0.09,0.09-0.17,0.17-0.26,0.26
		c-0.04,0.04-0.09,0.08-0.13,0.12c-0.03,0.03-0.07,0.07-0.1,0.1c-0.12,0.11-0.24,0.23-0.36,0.33c-0.05,0.05-0.11,0.1-0.16,0.14
		c-0.13,0.11-0.25,0.22-0.38,0.33c-0.03,0.02-0.05,0.04-0.07,0.06c-0.13,0.11-0.27,0.22-0.41,0.33c-0.05,0.04-0.1,0.08-0.15,0.12
		c-0.06,0.05-0.13,0.1-0.19,0.15c-0.09,0.07-0.17,0.13-0.26,0.2c-0.26,0.2-0.53,0.39-0.81,0.58c-0.08,0.06-0.17,0.12-0.26,0.17
		c-0.08,0.05-0.16,0.1-0.23,0.15c-0.07,0.05-0.15,0.1-0.22,0.14c-0.06,0.04-0.11,0.07-0.17,0.11c-0.08,0.05-0.16,0.1-0.24,0.14h0
		c-0.04,0.02-0.08,0.05-0.12,0.07c-0.14,0.08-0.28,0.17-0.43,0.25c-0.09,0.05-0.17,0.1-0.26,0.14c-0.08,0.05-0.17,0.09-0.25,0.14
		c-0.11,0.06-0.22,0.12-0.32,0.17c-0.08,0.04-0.16,0.08-0.24,0.12c-0.02,0.01-0.04,0.02-0.06,0.03c-0.08,0.04-0.15,0.07-0.23,0.11
		c-0.04,0.02-0.08,0.04-0.13,0.06c-0.06,0.03-0.13,0.06-0.19,0.09c-0.03,0.01-0.05,0.02-0.07,0.04c-0.09,0.04-0.18,0.08-0.27,0.12
		c-0.1,0.04-0.2,0.09-0.3,0.13c-0.1,0.04-0.2,0.09-0.3,0.13c-0.1,0.04-0.2,0.08-0.31,0.12c-0.1,0.04-0.2,0.08-0.31,0.12
		c-0.1,0.04-0.21,0.08-0.31,0.11c-0.06,0.02-0.12,0.04-0.18,0.06c-0.04,0.02-0.09,0.03-0.13,0.05c-0.1,0.04-0.21,0.07-0.31,0.11
		c-0.1,0.03-0.21,0.07-0.32,0.1c-0.08,0.02-0.16,0.05-0.24,0.07c-0.16,0.05-0.32,0.09-0.48,0.14c-0.08,0.02-0.16,0.04-0.24,0.07
		c-0.08,0.02-0.16,0.04-0.24,0.06c-0.06,0.02-0.13,0.03-0.19,0.05c-0.18,0.04-0.36,0.09-0.54,0.13c-0.11,0.02-0.22,0.05-0.33,0.07
		c-0.04,0.01-0.07,0.02-0.11,0.02c-0.2,0.04-0.41,0.08-0.61,0.11c-0.57,0.1-1.15,0.18-1.73,0.23c-0.19,0.02-0.38,0.03-0.56,0.05
		h-22.67c0.01-3.45,0.76-6.73,2.12-9.68c3.67-8.02,11.75-13.59,21.12-13.6v-0.06H1799.6z"/>
	<path class="st3" d="M1778.55,864.16v23.34c-12.84-0.01-23.24-10.46-23.24-23.34H1778.55z"/>
	<rect x="1802.11" y="839.33" class="st3" width="22.18" height="23.34"/>
	<path class="st3" d="M1824.29,864.16c0,12.53-9.84,22.75-22.18,23.32v-23.32H1824.29z"/>
	<path class="st3" d="M1824.29,814.54v23.32h-22.18C1802.11,825.33,1811.95,815.1,1824.29,814.54z"/>
	<rect x="1729.69" y="839.29" class="st3" width="23.27" height="23.34"/>
	<rect x="-91.48" y="1080" class="st6" width="2171.23" height="361.53"/>
	<text transform="matrix(1 0 0 1 -91.4818 1257.4978)" class="st0"><tspan x="0" y="0" class="st7 st8 st9">SIMRACING INDUS</tspan><tspan x="1930.97" y="0" class="st7 st8 st9">-</tspan></text>
	<path class="st0" d="M2110,939.44c0,40.04-32.46,72.5-72.5,72.5H-189.62c-0.25-2.46-0.38-4.97-0.38-7.5
		c0-40.04,32.46-72.5,72.5-72.5h2227.12C2109.87,934.4,2110,936.91,2110,939.44z"/>
	<path class="st10" d="M-189.62,1011.94H-190v-7.5C-190,1006.97-189.87,1009.48-189.62,1011.94z"/>
	<path class="st10" d="M2110,931.94v7.5c0-2.53-0.13-5.04-0.38-7.5H2110z"/>
</g>
</svg>
