<svg id="Capa_2" data-name="Capa 2" xmlns="http://www.w3.org/2000/svg" viewBox="0 0 2300 197.42936"><defs><style>.cls-1{fill:red;}.cls-2{fill:blue;}</style></defs><title>Logo23</title><path class="cls-1" d="M7966.02373,7474.01161a23.303,23.303,0,0,1-23.26526,23.34106H7896.228a23.30366,23.30366,0,0,1,23.26525-23.34106Z" transform="translate(-6049.5 -7474.01064)"/><path class="cls-1" d="M7966.02373,7523.659c0,.12935-.001.25869-.00388.388v.02821c-.001.08461-.00291.16922-.00679.25383,0,.01362,0,.02723-.001.04085-.001.05446-.00195.10989-.00486.16436l-.001.02723c-.00679.19937-.01745.39874-.03.59616l-.00291.04766c-.00291.0496-.00679.09823-.01066.14783-.00485.07391-.01067.14782-.01649.22174l-.001.01264c-.00679.08169-.01358.16242-.02133.24314-.001.01362-.00194.02723-.00388.03987-.00775.08558-.01648.17117-.0252.25578-.01066.105-.0223.2091-.0349.31316-.00194.01848-.00388.03793-.00679.05641-.00775.06419-.01551.12837-.02423.19159l-.00194.01653c-.00872.07-.01842.13907-.02714.20813l-.001.00389c-.01454.107-.03.213-.04654.319-.01453.09628-.03005.19159-.04652.2869l-.00679.03988c-.00582.04084-.0126.08072-.02035.12156l-.00486.03015c-.01356.07975-.02811.15853-.04265.2373-.00484.02334-.00872.04766-.01357.071-.02132.11476-.04362.22758-.06688.34136-.00388.02043-.00776.04085-.01261.06127-.02133.105-.04362.21007-.06785.31413l-.00388.01945c-.00194.01167-.00485.02432-.00776.036-.02133.09823-.04459.19645-.06785.29371l-.01745.07294c-.02618.11087-.05429.22174-.0824.33163-.00388.01751-.00872.035-.01357.05252-.02618.10309-.05429.20716-.0824.31025-.00872.03112-.01648.06223-.0252.09336l-.0698.24508c-.05041.17408-.10275.34622-.157.51837-.0252.0778-.04944.1556-.07464.23243-.01261.03793-.02424.07489-.03781.11185-.03393.10308-.06882.2052-.10469.30829l-.001.00292c-.04168.11962-.08434.23828-.128.35692-.03393.09434-.06979.18868-.10566.282-.02327.06225-.04751.12546-.0727.1877-.00776.02237-.01649.04377-.02618.06614-.02811.07391-.05816.14782-.08821.22076-.00776.01945-.01552.0389-.02424.05835-.03393.08364-.06785.16729-.10372.24995-.04557.10892-.09306.21785-.14153.32677q-.09017.20424-.18419.40555c-.0475.10212-.095.20424-.14444.30538-.05428.11282-.10954.22466-.16576.3365l-.00388.00681c-.04847.09726-.09791.19354-.14831.28982-.0349.06808-.07174.13616-.10761.20326-.03587.06808-.0727.13518-.10857.20229-.04847.08948-.0979.177-.14734.26551-.01357.02334-.02618.04668-.03975.07-.05622.09823-.11245.19645-.16964.29371-.07174.12157-.14444.24313-.21811.36275-.0475.07878-.09694.15756-.14638.23536-.05525.08948-.11148.178-.16964.26551-.01067.01848-.0223.036-.0349.05446-.064.09919-.1299.19742-.19581.29565-.03491.05252-.0698.105-.10664.15658-.04362.06419-.08821.12838-.1328.19257-.07949.11378-.16.22659-.24235.33941-.08143.11184-.16383.22369-.24816.33456-.05332.071-.1076.142-.16092.212-.01842.02334-.03587.04668-.05428.06906-.0698.08947-.1396.178-.21036.26647l-.00679.00875c-.07658.09434-.15316.18867-.23072.282-.07948.09628-.15994.19159-.24137.2869s-.16286.18965-.24622.283l-.00291.00389c-.08143.09239-.16383.18381-.2472.27523q-.12358.13568-.2501.26842l-.00775.00876-.01357.01458q-.24865.264-.50506.51837l-.0029.00292c-.08822.08753-.17643.17408-.26658.26064-.08822.08461-.17643.16922-.26658.25383l-.00485.00389c-.09112.08461-.18224.16922-.27531.25287l-.0029.00194c-.09016.08267-.18225.16339-.27434.24508l-.00582.00486c-.18709.16339-.37709.32484-.57.48239-.096.07975-.19388.15755-.29179.23535-.11148.08851-.22393.177-.33734.26259q-.27046.20861-.54771.4075l-.0126.00874c-.10179.07295-.20454.14492-.3073.21689-.10275.071-.20648.142-.3102.211q-.15559.105-.31408.20715c-.1047.06808-.21133.13518-.317.20132-.094.05932-.18806.1167-.28306.17408-.03.01945-.06107.03793-.09209.05544-.09016.05348-.18031.107-.27046.15949q-.16.09338-.32281.18382c-.09209.05154-.18612.10309-.27918.15365-.03393.01848-.06689.037-.10081.05447-.09113.04862-.18225.09628-.27434.14394-.10373.05446-.20939.108-.31505.16046l-.01648.00778c-.11051.05544-.223.1099-.33444.16339-.11245.05349-.2249.106-.33831.15853-.11052.05057-.222.10114-.33444.15074l-.00582.00195c-.11439.0496-.22877.0992-.34316.14685-.11536.04863-.23071.09628-.347.142q-.173.07-.349.13713l-.00485.00194c-.09112.035-.18321.06906-.2753.1031l-.04944.0175c-.062.02334-.12409.04474-.18709.06711-.02521.00972-.05041.01848-.07562.02723l-.02908.00973c-.05331.01944-.10663.03695-.16091.05543-.18806.06516-.379.1274-.57.18673-.0698.02236-.13959.04279-.20939.06418l-.01357.00389c-.08046.02432-.16189.04863-.24332.072-.08821.02626-.17642.05057-.26561.07489-.0378.0107-.07561.02042-.11342.03112-.08336.02237-.16576.04474-.24913.06613l-.20648.05252c-.01454.00292-.02908.00681-.04362.0107-.0252.00583-.05138.01264-.07755.01848-.08046.01945-.16092.0389-.24235.05737q-.141.03357-.28209.0642c-.094.02042-.189.03987-.28306.05932-.05913.01264-.1173.02431-.17546.035l-.02423.00487c-.05429.01167-.10954.02236-.16383.03209l-.01163.00194c-.05041.00973-.10082.01946-.15122.02723-.03394.00681-.06883.01362-.1047.01945l-.05138.00876c-.05816.0107-.11729.02042-.17546.03015-.20163.034-.40423.06418-.60877.09239-.06689.00972-.13475.01945-.2026.02723-.09306.01264-.18612.02431-.28015.035q-.15559.019-.31118.035l-.02326.00194q-.08871.0102-.1774.0175c-.05913.00584-.11826.0107-.1774.01654h-.00387c-.06786.00583-.13378.01167-.20164.01653-.04168.00389-.08336.00681-.12505.00972h-.00678c-.06883.00584-.13668.01071-.20648.01459l-.01261.001c-.221.01458-.442.02528-.665.03209l-.03781.00194c-.02229.001-.04459.002-.06786.002q-.10469.00438-.20938.00584l-.03878.001c-.03974.001-.07949.00195-.11923.00195-.01067.001-.0223.001-.033.001-.1076.001-.2152.00195-.3228.00195H7896.228a23.30365,23.30365,0,0,1,23.26525-23.341Z" transform="translate(-6049.5 -7474.01064)"/><path class="cls-1" d="M7966.02373,7522.17588h-46.53051a23.303,23.303,0,0,1-23.26525-23.34106h46.5305c.10179,0,.20357.001.30536.00195.09209.001.18321.00291.27433.00583.03006,0,.06011.001.08919.00195.14832.00389.29663.00972.444.01653l.03005.00194c.04847.00195.09694.0039.14541.00779.36643.01945.729.04765,1.09055.08461.05235.00486.1047.01069.157.01653.08822.00973.17546.01945.26368.03015.15219.01848.30342.03793.45367.05933q.1294.0175.25883.03793c.01066.001.02036.00291.031.00486.09112.01361.18224.0282.27239.04279.18419.03112.3674.06321.54964.09823.03781.0068.07465.01361.11149.02139.07076.01362.14152.0282.21229.04279.29179.05933.5826.12546.86954.19549.07755.01945.15413.03889.23071.05835.08337.0214.16674.04376.2501.06613.06883.01848.13766.037.20551.05641.06883.01848.13766.03793.20551.05835q.21085.05982.41878.12546c.13183.03987.26367.08266.39454.12546.11051.03695.222.07391.33153.11282.04556.01458.09112.03111.13571.04668.11148.03987.222.07974.3325.12059.12215.04474.24332.09142.36449.13907.0349.01265.06882.02626.10276.03988.10566.04182.21035.08461.316.1274l.01163.00486c.127.05252.254.106.38.16144.12893.05544.25688.11282.38388.17117q.19192.08754.381.178.37806.1809.75031.3754.37079.194.73382.40166c.2375.13519.47306.27523.70474.41819l.02812.01848c.11341.07.22586.141.33831.214.11633.07489.23265.15075.348.22855q.14687.09774.29081.1984.1367.09338.27047.18965l.01745.01264q.28644.2057.56708.4182c.07659.05835.15317.11767.22975.177l.08143.06419c.17352.13615.34413.27425.5128.41625.09015.07585.17934.15171.26852.22757.08821.07683.17643.15366.26464.23146.1745.15561.348.31316.51863.47461q.12795.11962.253.24216c.08433.0817.1677.16436.25107.247.07173.072.14347.14492.2152.21786.01357.01361.02715.0282.03974.04182.07852.08169.15705.16241.23363.24507.08046.08461.15994.17117.23943.25773.07852.08656.157.17312.2346.26064.07852.08753.1551.176.23168.2655.07561.08851.15219.178.22684.26843.07464.08948.14928.18089.223.27134.07368.09142.14735.18284.21909.27523l.00775.00973c.0698.08947.13959.17894.20745.26939.07174.09336.14153.18673.21133.282.06979.09434.13862.18964.20648.28495.12408.17312.24428.3472.36352.52323.01841.02723.03586.05349.05331.08072.06107.09045.1202.17992.17837.27134.064.09823.127.19743.19.2976.062.0992.12408.20034.18515.30052.06107.10114.12117.20228.18127.3044l.17159.2976.00872.01653c.05719.10018.11245.20132.1677.30246.05623.10407.11245.20813.16771.31317q.16431.31364.3199.63312c.04362.0885.08627.177.128.26648.05914.12545.1173.25188.1745.37831.04846.10893.096.21688.14346.32678.0475.10893.09307.21883.13862.32872q.0509.12108.09888.24217c.064.15852.125.318.18515.47849.032.08461.063.17019.094.25578.03.08169.05913.16338.08724.246.02326.06613.04556.13129.06786.19743.03.08655.05913.17408.08724.26161.03684.11476.07367.22855.10857.34331.03587.11573.07077.23049.10373.34623.03393.11573.06689.23146.09887.34816.03.1099.0601.22077.08822.33164.06495.25.126.50086.18127.75372.02036.08559.03878.17311.05719.25967.01067.04863.02036.09823.03006.14686.04846.23244.09209.46584.1328.7012.01357.07781.02715.15561.03878.23341.01066.06419.02133.1274.03005.19159.00582.02821.0097.05738.01357.08558.01163.07392.0223.14783.032.22272.01551.10406.02908.20909.04266.31413.01453.11671.02908.23439.04168.35206.01163.0992.02229.1984.031.29857.00582.04766.00969.09628.01357.14394.00872.08947.01648.179.02326.26939.00194.01459.00291.02918.00388.04377.00582.072.01164.14393.01551.2159.00485.0496.00776.10018.01067.15075.0029.037.00484.07391.00678.11184.00485.08364.0097.16728.01357.25092.00388.08461.00776.17019.01066.2548.00291.0817.00582.16339.00776.24606l.00291.11378c.00194.06225.00291.12449.00291.18771C7966.02276,7521.95317,7966.02373,7522.064,7966.02373,7522.17588Z" transform="translate(-6049.5 -7474.01064)"/><path class="cls-1" d="M7992.45693,7523.658a23.303,23.303,0,0,1-23.26525,23.34106V7523.658Z" transform="translate(-6049.5 -7474.01064)"/><path class="cls-1" d="M8039.034,7497.35169h-69.84228a23.30366,23.30366,0,0,1,23.26525-23.341h23.38158q1.11965,0,2.21311.106c.58454.05446,1.16229.13324,1.73229.23146A23.30363,23.30363,0,0,1,8039.034,7497.35169Z" transform="translate(-6049.5 -7474.01064)"/><path class="cls-1" d="M8039.10377,7498.83385v.05836c0,.09919-.001.20034-.00194.29856-.001.0992-.00291.19938-.00581.2976-.00194.07586-.00389.15172-.0068.2266l-.00291.08753c-.00388.0924-.00775.18478-.01259.27718-.00291.071-.00679.14394-.01164.214-.00388.072-.00872.143-.01356.21493q-.00873.14-.02037.2801c-.00678.08947-.01454.17894-.02326.26745-.00581.069-.0126.13809-.02037.20812-.00968.10017-.02035.19937-.032.29857l-.01456.12837c-.00678.05933-.01453.11866-.02229.177-.01744.143-.03683.284-.05719.425-.01454.10114-.031.20326-.04653.30343-.01066.06711-.02133.13421-.033.20132-.01746.106-.03588.21007-.05527.3151-.00969.05836-.02035.11476-.032.17214-.00969.05155-.0194.10309-.03005.15367-.01746.08947-.03588.17894-.05429.26842-.0097.05057-.02035.10212-.032.15074-.00775.0389-.01647.07781-.0252.11574-.02035.0953-.04265.19061-.06494.28593-.01744.07488-.03587.15171-.05429.22659l-.00581.02238c-.02715.10989-.05525.21979-.08337.32872-.02811.10989-.05817.21882-.08822.32774l-.04363.15463c-.00775.02821-.0155.05544-.02423.08267-.01647.0603-.03391.11768-.05137.176-.02036.07-.04169.14-.063.20812-.08821.28691-.18128.57186-.28113.8539-.02519.072-.05039.14394-.07754.2159l-.00194.00681c-.01938.05252-.03781.107-.05817.15853-.095.2587-.19485.51448-.29953.76928-.03879.09434-.07852.18868-.11827.282q-.12069.28155-.24816.56018-.19923.43619-.41587.86168c-.05138.10114-.10276.20034-.15608.30149-.10468.19839-.21326.39582-.32376.59227q-.41587.73526-.88118,1.43548c-.06979.106-.14056.21007-.21132.31316-.03975.05738-.08047.1167-.12214.176-.02812.0389-.0572.07974-.08532.11962q-.13522.19112-.27529.3793c-.04169.05543-.08338.11086-.126.16727-.17255.23049-.35091.45613-.53219.67884q-.14687.17943-.29663.35692c-.00776.00875-.01551.01848-.02521.0282-.05138.06128-.10372.12352-.15607.18284-.04072.04668-.08142.09337-.12213.13908-.05041.05738-.10082.11378-.15123.17019-.05041.05544-.10082.11185-.1522.16631-.05041.05543-.10179.1099-.15316.16533s-.10275.10989-.1551.16436c-.03588.03793-.07173.07586-.10858.11379-.03586.037-.07271.07488-.10953.11184-.07368.07489-.14735.14977-.221.22271-.08725.08656-.1745.17214-.2627.25578-.04266.0428-.08532.08267-.128.12254-.0349.03307-.06882.06614-.10372.09725-.12021.11477-.24234.22563-.36449.33456-.05428.04863-.10857.09725-.16286.14491-.126.11184-.252.22077-.38.32775-.02521.02139-.04944.04279-.07465.06321-.13474.11282-.27046.22466-.4081.33358-.04944.03891-.09791.07781-.14735.11671-.063.05155-.126.10017-.19.1488q-.128.09774-.25884.19548c-.26464.19937-.53316.39-.80651.57672-.08435.05738-.16964.11574-.255.17117-.07756.05349-.1551.10308-.23362.15269-.07464.04862-.14928.09628-.22393.14394-.05719.03695-.11438.07294-.17158.107-.07853.0496-.158.09726-.2375.14491h-.001c-.03975.02431-.07852.04765-.11729.071q-.2123.12691-.42847.249c-.08531.04863-.17062.09531-.25689.142q-.12506.07-.253.13713c-.1076.05835-.2152.11573-.32377.1702-.07853.03987-.159.07975-.2375.11962-.01842.00972-.03685.01848-.05526.02723-.07561.03793-.1522.07488-.22877.11184-.04266.0214-.08434.04085-.127.0603l-.19195.09044-.07464.035c-.08823.03987-.1774.07974-.26562.11865-.10081.04474-.20066.0885-.30148.13129-.10082.04376-.20164.08656-.30341.12643-.10081.04182-.20357.08364-.30536.12351-.10179.04085-.20454.07975-.30729.11768-.10276.03891-.20552.07683-.30924.11476-.05913.0214-.11826.04279-.17739.06322-.04459.01556-.08919.03112-.13475.04571-.10372.036-.20842.071-.31311.107-.10469.03306-.21036.0671-.316.10017-.07948.02431-.158.04863-.23751.07294q-.23846.07148-.47887.13907c-.08046.02237-.16091.04377-.24137.06516-.08047.02335-.16092.04279-.24235.06322-.062.01556-.125.03112-.18806.04668q-.27046.06711-.54383.12644c-.10953.02431-.21908.04668-.32861.069l-.11247.02334c-.20258.04085-.40713.07878-.61167.11379q-.85645.14735-1.73229.22952c-.18709.01946-.37516.034-.56419.04668h-22.67489a23.30716,23.30716,0,0,1,23.23908-23.28269v-.05836Z" transform="translate(-6049.5 -7474.01064)"/><path class="cls-1" d="M8018.05162,7523.658v23.34106a23.30254,23.30254,0,0,1-23.23908-23.34106Z" transform="translate(-6049.5 -7474.01064)"/><rect class="cls-1" x="1992.11351" y="24.82418" width="22.18148" height="23.34105"/><path class="cls-1" d="M8063.795,7523.659a23.30779,23.30779,0,0,1-22.18147,23.31576V7523.659Z" transform="translate(-6049.5 -7474.01064)"/><path class="cls-1" d="M8063.795,7474.0369v23.31577h-22.18147A23.30779,23.30779,0,0,1,8063.795,7474.0369Z" transform="translate(-6049.5 -7474.01064)"/><rect class="cls-1" x="1919.69168" y="24.77653" width="23.26525" height="23.34105"/><path class="cls-2" d="M6049.88,7671.44h-.38v-7.5A74.28163,74.28163,0,0,0,6049.88,7671.44Z" transform="translate(-6049.5 -7474.01064)"/><path class="cls-2" d="M8349.5,7591.44v7.5a74.28,74.28,0,0,0-.37988-7.5Z" transform="translate(-6049.5 -7474.01064)"/></svg>