<svg id="Capa_2" data-name="Capa 2" xmlns="http://www.w3.org/2000/svg" viewBox="0 0 591.745 256.91727"><defs><style>.cls-1{fill:red;}</style></defs><title>SRI</title><path class="cls-1" d="M7718.52625,7290.08622a82.158,82.158,0,0,1-82.15875,82.15875H7472.05a82.16021,82.16021,0,0,1,82.15875-82.15875Z" transform="translate(-7472.04999 -7290.08279)"/><path class="cls-1" d="M7718.52625,7464.84131c0,.4553-.00342.91058-.0137,1.36588v.09929c-.00343.29782-.01026.59565-.024.89347,0,.04793,0,.09584-.00341.14377-.00342.19171-.00685.38684-.01713.57854a.93589.93589,0,0,1-.0034.09586c-.024.70177-.06164,1.40354-.10613,2.09845-.00342.05821-.00685.113-.01028.16776-.01028.17457-.024.34574-.03765.52033-.01711.26017-.03765.52034-.05821.78052,0,.01368-.0034.03079-.0034.0445-.024.28754-.04793.57168-.07533.85582-.00342.04793-.00685.09584-.01368.14035-.02739.30125-.05819.6025-.089.90032-.03765.36972-.07873.736-.12323,1.10231-.00686.065-.01371.13349-.024.19853-.02739.226-.05478.45188-.08558.6744a.33754.33754,0,0,1-.00685.05819c-.0308.24649-.06505.48953-.09585.73259l-.00342.01368c-.05136.37658-.10612.7497-.16433,1.12285-.05134.3389-.10612.67438-.16431,1.00987-.00686.04791-.01712.09242-.024.14035-.02054.14377-.0445.28413-.07188.42791-.00342.03422-.01028.07189-.01713.10612-.04791.28071-.09927.558-.15062.83528-.01712.08215-.0308.16774-.04791.24989-.07533.40395-.15406.80106-.23621,1.20158-.01371.07189-.02739.14377-.04451.21567-.07532.36972-.15405.73942-.23963,1.10571a.48691.48691,0,0,1-.01369.06847c-.00685.04108-.01713.08558-.02739.12666-.07532.34575-.15748.69151-.23963,1.03384l-.06162.25674c-.09243.39026-.1917.7805-.291,1.16733-.0137.06162-.03082.12326-.04793.18487-.09243.36287-.1917.72916-.291,1.092-.0308.10955-.05819.21907-.089.32862l-.24649.86268c-.178.61276-.36286,1.21868-.55457,1.82461-.089.27386-.17459.54772-.26359.81815-.04451.13351-.08559.2636-.1335.39368-.11982.36287-.24306.72231-.36972,1.08518l-.00342.01028c-.1472.42106-.29783.83871-.45188,1.25634-.11981.33207-.24647.66411-.37313.99276-.08217.21909-.16775.44159-.25674.66069-.02739.07873-.05821.15405-.09244.23278-.09926.26017-.20539.52034-.31151.77709-.02739.06845-.05478.13692-.08558.20539-.11983.2944-.23963.58881-.36629.87978-.16091.38341-.32864.76682-.49981,1.15022q-.31836.7189-.65043,1.4275c-.16774.35947-.33548.71891-.51007,1.07492-.1917.39711-.38683.79078-.58536,1.18446l-.01371.024c-.17116.34233-.34576.68123-.52375,1.02013-.12326.23963-.25332.47927-.38.71547-.12666.23962-.25675.47582-.38341.712-.17116.315-.34573.623-.52032.93457-.04793.08216-.09244.16431-.14037.24647-.19853.34575-.39709.69151-.59907,1.03384-.25332.42791-.51007.85582-.77024,1.27687-.16774.27729-.34233.55457-.51692.82843-.19511.315-.39366.62647-.59907.93457-.03765.065-.07873.12666-.12324.1917-.22592.34916-.45871.69492-.69149,1.04067-.12325.18487-.24648.36972-.37657.55115-.15405.226-.31151.45187-.469.67782-.28071.40052-.56485.79761-.85582,1.19472-.28756.39367-.57853.78735-.87636,1.17761-.18827.2499-.38.49979-.56825.74628-.065.08215-.12668.16431-.19171.24306-.24648.31493-.49295.62644-.74286.938-.00683.01026-.01711.02054-.024.0308-.27043.33207-.54086.66412-.81474.99276-.28069.3389-.56483.67438-.85239,1.00987s-.57511.66755-.86951.99617a.04721.04721,0,0,1-.01028.0137c-.28754.3252-.57854.647-.87293.96878q-.43646.47754-.88321.94483a.08107.08107,0,0,1-.02738.03082c-.01711.01711-.03081.03422-.04793.05133q-.87808.92943-1.78353,1.82462-.00512.01027-.01026.01026c-.31153.3081-.623.61278-.94141.91745-.31153.29783-.623.59565-.9414.89348a.07517.07517,0,0,1-.01711.01368c-.32179.29782-.64358.59565-.97222.89007-.00343.00683-.00685.01026-.01026.00683-.31838.291-.64358.57511-.96879.86267a.09126.09126,0,0,1-.02054.01712c-.66069.5751-1.33167,1.14338-2.01289,1.698-.33891.28071-.68466.55457-1.03042.82843-.39368.31153-.79077.623-1.19129.92429q-.95513.7343-1.93416,1.43435c-.01369.01026-.0308.02054-.04451.0308-.35944.25675-.72231.51009-1.08517.76341-.36287.24989-.72916.49978-1.09546.74284q-.54943.36971-1.10914.72916c-.36972.23964-.74627.47585-1.11942.70863-.332.20881-.66411.41079-.99959.61276-.10612.06847-.21567.13351-.32521.19513-.31837.18827-.63673.37655-.95509.56142q-.56487.32863-1.14.647c-.32522.18143-.65727.36287-.98591.54087-.1198.065-.2362.13008-.356.1917-.32179.17116-.64358.3389-.9688.50666-.36629.1917-.73942.38-1.11256.56483a.30283.30283,0,0,1-.05819.02739c-.39026.19513-.78735.38683-1.181.57511-.39709.18828-.7942.37315-1.19472.558-.39026.178-.78392.356-1.181.5306a.04875.04875,0,0,0-.02054.00685c-.40394.1746-.80788.34919-1.21183.51692-.40737.17117-.81474.33891-1.22554.49979q-.61105.24649-1.23237.48269l-.01714.00684c-.32179.12325-.647.24306-.9722.36288l-.17459.06162c-.21909.08216-.43819.15746-.66069.23621-.089.03422-.178.065-.267.09584-.03423.01368-.06845.024-.1027.03424-.18827.06845-.37655.13007-.56825.19511-.66412.22938-1.33852.44845-2.01289.65729-.24649.07873-.493.15062-.73945.22593-.01711.00342-.03079.01028-.04791.01368-.28413.08558-.5717.17116-.85924.25334-.31153.09242-.623.178-.938.26358-.13351.03767-.267.0719-.40054.10955-.29439.07875-.58537.15748-.87978.23278l-.72916.18487c-.05134.01026-.1027.024-.154.03765-.089.02054-.18145.0445-.27388.065-.28412.06847-.56826.13692-.85582.202q-.49807.11812-.99617.226c-.332.0719-.66754.14035-.99959.20882-.20882.0445-.41423.08558-.61962.12323a.75644.75644,0,0,1-.08558.01713c-.1917.04108-.38683.07873-.57853.113-.01371.00342-.02739.00342-.04108.00685-.178.03423-.356.06847-.534.09584-.11983.024-.24306.04793-.36972.06847-.06162.01028-.11981.02054-.18145.03082-.20538.03765-.4142.07188-.61961.10612-.712.11981-1.4275.22593-2.14981.32522-.23621.03422-.47584.06845-.71547.09584-.32863.0445-.65727.08558-.98932.12323q-.54943.06677-1.09888.12326a.66685.66685,0,0,0-.08215.00683q-.31326.03594-.62647.06161c-.20881.02056-.41763.03768-.62647.05821h-.01368c-.23963.02054-.47242.04108-.71205.05819-.1472.01369-.2944.024-.4416.03423h-.024c-.24306.02054-.48267.03767-.72916.05136a.18105.18105,0,0,1-.04451.00342c-.78049.05134-1.561.089-2.34836.113-.04451.0034-.089.0034-.13351.00683-.07873.00343-.15748.00685-.23964.00685q-.36969.01539-.73942.02054c-.0445,0-.089.00343-.13694.00343-.14034.00343-.28071.00685-.421.00685-.03766.00341-.07873.00341-.11641.00341-.38.00342-.75995.00685-1.13993.00685H7472.05a82.16021,82.16021,0,0,1,82.15875-82.15875Z" transform="translate(-7472.04999 -7290.08279)"/><path class="cls-1" d="M7718.52625,7459.6208H7554.20874a82.158,82.158,0,0,1-82.15875-82.15875H7636.3675c.35944,0,.71888.00342,1.07832.00685.32521.00343.647.01026.96879.02054.10612,0,.21224.00343.31494.00683.52377.01371,1.04752.03425,1.56787.05821.03422,0,.07189.00343.10612.00684.17116.00685.34233.0137.51349.02739,1.294.06847,2.57431.16773,3.85119.29782.18485.01711.36972.03765.55457.05819.31153.03425.61962.06847.93115.10614.53743.065,1.07148.13349,1.60209.20882q.457.06162.914.13351c.03765.00341.0719.01026.10955.01711.32179.04791.64358.09927.96194.15063.65043.10955,1.29741.2225,1.941.34575.13352.02395.2636.04791.39369.07531.24989.04793.49978.09926.7497.15062,1.03041.20882,2.05739.4416,3.07067.68808.27386.06847.54431.13692.81474.20539.2944.07533.58882.15405.88322.23278.24306.06505.4861.13009.72573.19856.24306.065.4861.13351.72573.20539q.74457.21054,1.47886.44161c.46557.14035.93113.291,1.39328.4416.39026.13009.78393.26017,1.17076.39711.1609.05134.32179.10953.47927.16431.39366.14035.78392.28071,1.17418.42449.43134.15748.85925.32179,1.28716.48952.12323.04451.243.09244.36286.14037.37313.1472.74285.29782,1.116.44845.01368.00683.02737.01026.04107.01711.44845.18485.8969.37313,1.34192.56826.45531.19513.90716.39711,1.35563.6025q.67779.30812,1.34535.62646,1.33506.63673,2.64962,1.32139,1.3094.68295,2.59142,1.41381c.83869.47584,1.67057.9688,2.48871,1.472.03425.024.06847.0445.09929.065.40052.24649.79761.49638,1.19472.75313.4108.2636.82158.5306,1.229.80446q.51864.34407,1.027.69836.48268.32865.95511.66755a.69247.69247,0,0,1,.06162.04448q1.01157.72405,2.00261,1.472c.27045.20539.54089.4142.81132.623l.28756.22593c.61276.47926,1.21526.96536,1.81091,1.46517.31836.267.63332.534.94826.801.31151.27043.623.54088.93455.81474.6162.54772,1.229,1.10229,1.83146,1.67056q.45188.42107.89348.8524c.29782.28756.59222.57853.88663.8695.25332.25334.50664.51009.76.76683.04793.04791.09586.09927.14035.1472.27728.28755.55459.57169.825.86266.28414.29782.56483.6025.84554.90717.27729.30468.55457.60936.82845.91744.27729.3081.54772.61961.81815.93455.267.31153.53746.62647.80106.94483.26359.315.52717.63675.78735.95511.26017.32179.52034.64358.77366.96877a.13387.13387,0,0,1,.02739.03425c.24647.31493.493.62987.73257.94823.25334.32864.49981.65729.74629.99276.24647.33207.48953.66755.72916,1.003.43817.60935.86266,1.22211,1.28373,1.84173.065.09586.12666.18827.18828.28414.21567.31836.42448.63329.62987.95508.226.34576.44845.69494.671,1.04753.2191.34918.43817.70519.65384,1.0578.21567.356.42791.712.64015,1.07149l.60593,1.04752c.01028.01711.02054.03765.03082.05819.202.35261.39709.70862.59222,1.06464.19856.36629.39709.73259.59222,1.10231q.58025,1.104,1.1297,2.22855c.154.31151.30466.623.45186.938.20883.4416.41422.88662.6162,1.33164.17117.38343.3389.76341.50664,1.15024.16774.38341.32864.77024.48953,1.15707q.17972.42618.34918.85239c.22593.558.4416,1.1194.65384,1.68425.113.29783.22252.59908.33207.90033.10612.28756.20881.57511.30808.8661.08215.23278.1609.46213.23963.69491.10612.30468.20882.61276.30811.92087.13008.40394.26015.80446.3834,1.20843.12666.40735.2499.81131.3663,1.21868.1198.40737.2362.81472.34916,1.22552.10612.38683.21224.77709.31153,1.16735.22935.87979.445,1.763.64015,2.653.07187.30125.13692.60933.202.914.03767.17116.0719.34575.10612.51691.17117.81817.32522,1.63975.469,2.46818.04793.27388.09586.54774.13694.82159.03765.226.07532.44845.10612.6744.02054.09927.03425.202.04793.30123.04108.26017.07873.52035.113.784.05476.36629.10269.736.15062,1.10571.05134.4108.1027.825.1472,1.23922.04108.34919.07873.69837.10955,1.05095.02054.16774.03422.33891.04791.50664.03082.315.05821.6299.08215.94826.00686.05136.01028.10269.01371.15405.02054.25332.04108.50664.05476.76.01711.17459.02739.35261.03767.53062.01026.13009.01712.26016.02395.39367.01713.2944.03424.58881.04793.88321.01371.29783.02739.59908.03765.8969.01028.28756.02054.57511.02739.8661l.01028.40052c.00684.21909.01026.43817.01026.66069C7718.52283,7458.83688,7718.52625,7459.22712,7718.52625,7459.6208Z" transform="translate(-7472.04999 -7290.08279)"/><path class="cls-1" d="M7811.87227,7464.83788a82.158,82.158,0,0,1-82.15874,82.15875v-82.15875Z" transform="translate(-7472.04999 -7290.08279)"/><path class="cls-1" d="M7976.35409,7372.24154H7729.71353a82.16023,82.16023,0,0,1,82.15874-82.15875h82.56957q3.95387,0,7.81534.37315c2.06425.1917,4.10451.469,6.1174.81474A82.10265,82.10265,0,0,1,7976.35409,7372.24154Z" transform="translate(-7472.04999 -7290.08279)"/><path class="cls-1" d="M7976.60059,7377.45862v.20541c0,.34916-.00342.7052-.00685,1.05093-.00343.34918-.01028.70179-.02052,1.04754-.00685.267-.0137.534-.024.79761l-.01028.30811c-.01371.32521-.02737.65041-.04447.97562-.01028.24992-.024.50666-.04111.75313-.01371.25332-.0308.50323-.04789.75655q-.03084.49293-.07192.98591c-.02395.31494-.05136.62987-.08216.9414-.02051.243-.0445.4861-.07191.73257-.03419.35261-.07188.70179-.11292,1.05095q-.02569.23108-.05139.45187c-.02395.20882-.05132.41765-.07873.623-.0616.50322-.13.9996-.202,1.496-.05135.356-.10952.71547-.16431,1.06806-.03765.2362-.07534.47241-.11638.70862-.06163.37315-.1267.73942-.19515,1.10914-.03422.20541-.07187.40394-.11295.60593-.03422.18142-.06849.36286-.1061.54088-.06168.31494-.1267.62987-.19172.94481-.03427.178-.07188.35946-.113.53062-.02737.13692-.05817.27386-.089.40738-.07187.33547-.1506.67095-.22933,1.00644-.0616.26358-.12666.534-.19172.79761-.00686.02739-.01371.05821-.02052.07875-.09586.38683-.19511.77364-.2944,1.15707-.09929.38681-.20543.77024-.31153,1.15365q-.077.27213-.15407.54429c-.02737.09928-.05474.19513-.08558.291-.05817.21224-.11977.4142-.18141.61961-.07191.24647-.14722.49295-.22252.73257-.31149,1.00987-.64015,2.01289-.99276,3.00565-.089.25332-.178.50664-.27384.76a.06324.06324,0,0,1-.00685.024c-.06845.18487-.13351.37658-.20543.558-.33547.9106-.68808,1.81093-1.05774,2.70783-.137.332-.27731.66411-.41767.99273q-.42618.991-.87634,1.97182-.70355,1.53534-1.4686,3.033c-.18145.356-.36289.7052-.55119,1.06123-.36965.69834-.7531,1.39328-1.14332,2.08477q-1.46863,2.588-3.11179,5.05276c-.24647.37315-.49636.73944-.74625,1.10231-.14037.202-.28416.41078-.43134.61961-.09929.13692-.202.2807-.30129.42106q-.47751.67267-.97216,1.33509c-.14722.19511-.29444.39024-.445.58879-.60936.81132-1.23923,1.60552-1.87938,2.38945q-.51864.63162-1.04755,1.25636c-.02737.03079-.05474.065-.089.09926-.18144.21567-.36627.43477-.55114.64358-.14379.16431-.28754.32865-.43129.48953-.178.202-.356.40052-.53406.59907-.178.19513-.356.39369-.53747.58539-.178.19513-.35947.38684-.54087.58194s-.36284.38684-.54771.57854c-.12671.13351-.25332.267-.38345.40054-.12662.13008-.25675.26358-.38679.39366-.26018.2636-.52035.5272-.78052.784-.3081.30465-.61621.6059-.9277.90032-.15064.15063-.30129.291-.45189.43132-.12324.1164-.243.2328-.36628.34233-.42452.404-.85582.7942-1.28715,1.17761-.19169.17116-.38341.34232-.57513.51008-.44505.39367-.89.77707-1.3419,1.15365-.089.0753-.17459.15062-.2636.2225-.47584.39711-.95511.79077-1.44119,1.17418-.17459.13694-.34575.27388-.52035.4108-.22252.18144-.445.35261-.671.52377q-.45193.344-.91407.68806c-.93455.70179-1.8828,1.37274-2.84811,2.03-.29786.202-.59907.40737-.90036.60248-.27388.18829-.54772.36286-.825.53745-.2636.17117-.52719.33891-.79079.50666-.202.13009-.40393.25675-.60593.37656-.27731.17459-.558.34233-.83869.51006h-.00343c-.14036.08558-.2773.16774-.4142.24992q-.74967.44673-1.5131.87636c-.30125.17116-.60251.33547-.90718.49978q-.4416.24649-.89347.4827c-.38.20538-.76.40737-1.14337.59907-.2773.14035-.56142.28071-.83869.42106-.06506.03422-.13012.065-.19515.09584-.267.13351-.53747.2636-.80788.39368-.15065.07533-.29783.14378-.44843.21225l-.67785.31836c-.089.04108-.17459.08215-.26356.12325-.31157.14035-.62648.28069-.938.41763-.356.15748-.7086.31151-1.06464.46214-.356.15405-.71207.30467-1.07149.445-.356.1472-.71888.2944-1.07834.43474-.35946.1438-.72231.28071-1.08515.41423-.36289.13694-.72578.27043-1.09205.40394-.20882.07533-.41763.15063-.62645.22252-.15745.05477-.31495.10955-.47584.16089-.36627.12666-.736.24989-1.10571.37657-.3697.11638-.74287.23619-1.116.35259-.28069.08558-.558.17116-.83873.25674q-.84207.25161-1.69108.48953c-.28416.07873-.56824.15405-.8524.22936-.28416.08217-.56827.15062-.85582.22252-.21909.05476-.44162.10954-.66409.16431q-.95515.23622-1.9205.445c-.38679.08558-.77367.16431-1.16046.243-.13355.02739-.2636.05479-.39715.08216-.71541.14379-1.43776.27728-2.16007.40054q-3.02448.5186-6.1174.80788c-.66067.06847-1.32481.11981-1.99238.16432h-80.07394a82.10713,82.10713,0,0,1,82.06632-81.95335v-.20541Z" transform="translate(-7472.04999 -7290.08279)"/><path class="cls-1" d="M7902.25718,7464.83788v82.15875a82.15587,82.15587,0,0,1-82.06632-82.15875Z" transform="translate(-7472.04999 -7290.08279)"/><rect class="cls-1" x="513.41349" y="87.37926" width="78.33151" height="82.15875"/><path class="cls-1" d="M8063.795,7464.84131a82.15984,82.15984,0,0,1-78.3315,82.06974v-82.06974Z" transform="translate(-7472.04999 -7290.08279)"/><path class="cls-1" d="M8063.795,7290.17522V7372.245h-78.3315A82.15985,82.15985,0,0,1,8063.795,7290.17522Z" transform="translate(-7472.04999 -7290.08279)"/><rect class="cls-1" x="257.66355" y="87.21152" width="82.15873" height="82.15875"/></svg>